<?xml version="1.0" standalone="no"?>
<!DOCTYPE svg PUBLIC "-//W3C//DTD SVG 20010904//EN"
 "http://www.w3.org/TR/2001/REC-SVG-20010904/DTD/svg10.dtd">
<svg version="1.0" xmlns="http://www.w3.org/2000/svg"
 width="45.000000pt" height="53.000000pt" viewBox="0 0 45.000000 53.000000"
 preserveAspectRatio="xMidYMid meet">
<metadata>
Created by potrace 1.11, written by Peter Selinger 2001-2013
</metadata>
<g transform="translate(0.000000,53.000000) scale(0.100000,-0.100000)"
fill="#000000" stroke="none">
<path d="M213 392 c-18 -3 -23 -10 -24 -35 -1 -18 -2 -36 -4 -42 -1 -5 -3 -18
-3 -27 -1 -11 -10 -18 -22 -18 -17 0 -20 -7 -20 -40 0 -38 2 -40 30 -40 l30 0
0 -85 c0 -100 -3 -98 125 -93 l80 3 0 110 c0 106 -1 110 -22 113 -13 2 -23 10
-23 18 0 9 5 12 13 8 9 -5 9 -4 1 5 -8 9 -39 12 -98 9 -47 -2 -86 0 -86 5 0 4
16 7 35 7 l35 0 0 49 c0 51 -8 60 -47 53z m137 -141 c0 -13 8 -21 23 -23 21
-3 22 -7 22 -103 l0 -100 -60 -3 c-33 -2 -75 0 -92 3 l-33 6 0 74 0 75 66 0
66 0 -4 45 c-2 25 0 45 4 45 5 0 8 -9 8 -19z"/>
</g>
</svg>
